#!OML:ASF I:\Actors\actors\Patient Classification 2\Patient 1\Session 1\actor1.ASF
:FULLY-SPECIFIED
:DEGREES
104
root -0.773697 18.6898 6.16714 4.7568 -4.54227 -3.77441
lowerback -2.94124 0.268618 2.37946
upperback -2.68403 0.32121 1.59395
thorax -1.10058 0.137533 0.306748
lowerneck -13.0252 0.54959 -2.10026
upperneck 23.3159 0.660717 2.39359
head 9.48221 0.385312 1.26026
rclavicle 6.01013e-015 -5.26779e-015
rhumerus -49.4284 -8.29078 -82.3872
rradius 43.0134
rwrist 20.9093
rhand -0.972082 -38.5835
rfingers 7.12502
rthumb 24.659 -67.0147
lclavicle 6.01013e-015 -5.26779e-015
lhumerus -46.5901 7.31854 87.8936
lradius 42.2065
lwrist -2.74505
lhand -7.67704 -25.6113
lfingers 7.12502
lthumb 18.2196 3.55543
rfemur 0 0 0
rtibia 0
rfoot 0 0
rtoes 0
lfemur -6.00332 -7.13867 -10.5308
ltibia 21.8435
lfoot -26.3632 16.9527
ltoes -54.6551
105
root -0.774165 18.6901 6.16599 4.76491 -4.5436 -3.76178
lowerback -2.94633 0.265328 2.35872
upperback -2.68883 0.317165 1.5953
thorax -1.10281 0.135798 0.319673
lowerneck -13.0596 0.556335 -2.07436
upperneck 23.3283 0.679461 2.33405
head 9.49309 0.389784 1.2379
rclavicle 1.11568e-014 1.14301e-014
rhumerus -49.4141 -8.30496 -82.371
rradius 43.0002
rwrist 20.9438
rhand -0.563919 -38.8262
rfingers 7.12502
rthumb 25.0501 -67.2035
lclavicle 1.11568e-014 1.14301e-014
lhumerus -46.5924 7.30869 87.9036
lradius 42.1996
lwrist -2.7254
lhand -7.69289 -25.6379
lfingers 7.12502
lthumb 18.2043 3.53019
rfemur 0 0 0
rtibia 0
rfoot 0 0
rtoes 0
lfemur -6.01981 -7.11341 -10.5399
ltibia 21.8426
lfoot -26.3455 16.9562
ltoes -54.6811
106
root -0.77459 18.6902 6.1651 4.76051 -4.5439 -3.78565
lowerback -2.94316 0.240526 2.36728
upperback -2.69201 0.284258 1.61714
thorax -1.10833 0.119332 0.336618
lowerneck -13.0493 0.568724 -2.07098
upperneck 23.3426 0.695856 2.33253
head 9.49575 0.397374 1.23882
rclavicle 9.83052e-015 -1.23246e-014
rhumerus -49.4017 -8.25868 -82.3784
rradius 42.9841
rwrist 20.9732
rhand 0.165706 -39.2737
rfingers 7.12502
rthumb 25.7491 -67.5515
lclavicle 9.83052e-015 -1.23246e-014
lhumerus -46.6259 7.32843 87.9043
lradius 42.231
lwrist -2.66415
lhand -7.71964 -25.635
lfingers 7.12502
lthumb 18.1786 3.53555
rfemur 0 0 0
rtibia 0
rfoot 0 0
rtoes 0
lfemur -6.01692 -7.06939 -10.5113
ltibia 21.8345
lfoot -26.3126 16.9497
ltoes -54.7815
107
root -0.775677 18.687 6.16692 4.5511 -4.34929 -3.79619
lowerback -2.80222 0.160588 2.37966
upperback -2.62961 0.181104 1.61506
thorax -1.12418 0.0677652 0.32521
lowerneck -13.0379 0.577423 -2.05248
upperneck 23.3403 0.697751 2.35526
head 9.49267 0.402344 1.24366
rclavicle -4.93856e-016 2.61402e-014
rhumerus -49.3082 -8.14541 -82.4747
rradius 42.8138
rwrist 20.8252
rhand 0.34022 -39.5029
rfingers 7.12502
rthumb 25.9162 -67.7564
lclavicle -4.93856e-016 2.61402e-014
lhumerus -46.6407 7.31757 87.8751
lradius 42.2426
lwrist -2.63709
lhand -7.73771 -25.6187
lfingers 7.12502
lthumb 18.1612 3.55347
rfemur 0 0 0
rtibia 0
rfoot 0 0
rtoes 0
lfemur -5.83071 -7.05922 -10.482
ltibia 21.8302
lfoot -26.1728 16.7898
ltoes -54.9493
108
root -0.779124 18.6777 6.17264 3.9845 -3.74439 -3.7751
lowerback -2.39443 -0.0472215 2.34394
upperback -2.4604 -0.084594 1.61532
thorax -1.18155 -0.0640286 0.340962
lowerneck -13.0506 0.573033 -2.03637
upperneck 23.3219 0.693272 2.33542
head 9.48895 0.39961 1.23342
rclavicle -6.32073e-015 -1.30204e-014
rhumerus -49.1455 -7.94023 -82.6125
rradius 42.5242
rwrist 20.5116
rhand 0.0611625 -39.5523
rfingers 7.12502
rthumb 25.649 -67.8446
lclavicle -6.32073e-015 -1.30204e-014
lhumerus -46.6411 7.27187 87.8796
lradius 42.2483
lwrist -2.6292
lhand -7.74901 -25.6036
lfingers 7.12502
lthumb 18.1503 3.56954
rfemur 0 0 0
rtibia 0
rfoot 0 0
rtoes 0
lfemur -5.34758 -7.11561 -10.4402
ltibia 21.8308
lfoot -25.8564 16.2866
ltoes -55.127
109
root -0.778202 18.6779 6.17097 3.98625 -3.71771 -3.77753
lowerback -2.37337 -0.0560199 2.35606
upperback -2.47279 -0.0952926 1.62685
thorax -1.20622 -0.0697126 0.345944
lowerneck -13.0641 0.569709 -2.09124
upperneck 23.3413 0.691403 2.37654
head 9.49787 0.398495 1.25704
rclavicle -6.02566e-016 -1.68967e-014
rhumerus -49.0896 -7.77974 -82.6661
rradius 42.4119
rwrist 20.3304
rhand 0.114832 -39.6726
rfingers 7.12502
rthumb 25.7004 -67.9575
lclavicle -6.02566e-016 -1.68967e-014
lhumerus -46.658 7.30047 87.8897
lradius 42.2554
lwrist -2.68117
lhand -7.73136 -25.5925
lfingers 7.12502
lthumb 18.1673 3.57905
rfemur 0 0 0
rtibia 0
rfoot 0 0
rtoes 0
lfemur -5.35947 -7.18245 -10.4389
ltibia 21.8305
lfoot -25.8818 16.2847
ltoes -55.0144
